<?xml version="1.0" encoding="utf-8"?>
<!-- Generator: Adobe Illustrator 23.0.0, SVG Export Plug-In . SVG Version: 6.00 Build 0)  -->
<svg version="1.1" id="Layer_1" xmlns="http://www.w3.org/2000/svg" xmlns:xlink="http://www.w3.org/1999/xlink" x="0px" y="0px"
	 viewBox="0 0 50 50" style="enable-background:new 0 0 50 50;" xml:space="preserve">
<path d="M18.4,0.9C5.1,4.5-2.8,18.3,0.9,31.6c1,3.7,2.8,7,5.2,9.8c3.5-2.3,6.6-5.2,7.8-8.1c2.1-4.9,1.9-12.2,2.4-15.3
	c0.2-0.9,0.2-1.7,0.3-2.2c0.1-0.4,0.1-0.7,0.2-0.9c0.2-0.4,0.6-0.6,1-0.6c1,0,1.3,0.7,1.6,1.7c0.5,1.7,0.4,3.6,0.6,5.3
	c0.1,1,0.4,2,1,2.1c0.6,0.1,1.8-3,2.8-6.4c0.5-1.6,0.9-3.2,1.3-4.6c0.3-1.1,0.6-2.1,0.9-2.8c0.2-0.4,0.5-0.9,0.9-1.2
	c0.1-0.1,0.3-0.2,0.5-0.2c0.4-0.1,1,0.2,1.4,0.7c0.3,0.4,0.4,0.8,0.5,1.2c0.1,0.7-0.1,1.4-0.2,2.1c-0.4,2.2-1,4.6-1.8,7.1
	c-0.2,0.6-0.3,1.1-0.1,1.2c0.2,0.1,0.8-0.6,1.4-1.7c1.5-2.6,2.4-5.2,3.5-7.2c0.4-0.6,0.7-1.5,1.4-1.8c0.2-0.1,0.7-0.2,1.1,0
	c0.5,0.1,0.9,0.4,1.2,0.8c0.1,0.1,0.2,0.2,0.2,0.4c0.5,0.8,0.2,1.7-0.1,2.4c-0.3,0.7-0.6,1.4-1,2.3c-0.6,1.2-1.3,2.5-2,3.9
	c-0.1,0.2-0.2,0.4-0.3,0.6c-0.2,0.3-0.9,1.6-1.3,2.6c-0.2,0.4-0.2,0.7-0.1,0.8c0.3,0.4,1.3-1,2.2-2c0.8-1,1.6-2.1,2.3-3
	c0.4-0.6,0.8-1.2,1.3-1.7c0.5-0.6,1-1.3,1.7-1.7c0.2-0.1,0.4-0.2,0.6-0.2c0.5-0.1,1.1,0.2,1.5,0.5c0.2,0.2,0.3,0.4,0.4,0.6
	c0.1,0.2,0.1,0.4,0,0.6c-0.1,0.3-0.2,0.6-0.3,0.9c-0.8,1.7-2.2,3.4-3.4,5.4c-0.9,1.5-2.1,2.9-1.8,3.1c0.3,0.2,1.8-1.2,2.8-2.5
	c0.4-0.5,0.9-1.1,1.4-1.6c0.5-0.6,1.2-1.3,2-1.6c0.2-0.1,0.4-0.1,0.6-0.1c0.4,0,0.8,0.2,1,0.5c0.1,0.1,0.1,0.2,0.1,0.4
	c0,0.3,0,0.7-0.2,1.1c-0.7,1.8-4.2,6.2-5.3,8.2c-2.6,4.4-7.2,10.1-11.3,14.4c-1.8,1.9-3.5,3.6-5.1,5.2c3.3,0.5,6.7,0.3,10.1-0.6
	c13.3-3.6,21.2-17.4,17.5-30.7C45.5,5.1,31.7-2.8,18.4,0.9z"/>
</svg>
