<?xml version="1.0" encoding="utf-8"?>
<!-- Generator: Adobe Illustrator 24.0.1, SVG Export Plug-In . SVG Version: 6.00 Build 0)  -->
<svg version="1.1" id="Layer_1" xmlns="http://www.w3.org/2000/svg" xmlns:xlink="http://www.w3.org/1999/xlink" x="0px" y="0px"
	 viewBox="0 0 172.7 50" style="enable-background:new 0 0 172.7 50;" xml:space="preserve">
<style type="text/css">
	.st0{fill:#FFFFFF;}
</style>
<path class="st0" d="M18.4,0.9C5.1,4.5-2.8,18.3,0.9,31.6c1,3.7,2.8,7,5.2,9.8c3.5-2.3,6.6-5.2,7.8-8.1c2.1-4.9,1.9-12.2,2.4-15.3
	c0.2-0.9,0.2-1.7,0.3-2.2c0.1-0.4,0.1-0.7,0.2-0.9c0.2-0.4,0.6-0.6,1-0.6c1,0,1.3,0.7,1.6,1.7c0.5,1.7,0.4,3.6,0.6,5.3
	c0.1,1,0.4,2,1,2.1s1.8-3,2.8-6.4c0.5-1.6,0.9-3.2,1.3-4.6c0.3-1.1,0.6-2.1,0.9-2.8c0.2-0.4,0.5-0.9,0.9-1.2
	c0.1-0.1,0.3-0.2,0.5-0.2c0.4-0.1,1,0.2,1.4,0.7c0.3,0.4,0.4,0.8,0.5,1.2c0.1,0.7-0.1,1.4-0.2,2.1c-0.4,2.2-1,4.6-1.8,7.1
	c-0.2,0.6-0.3,1.1-0.1,1.2c0.2,0.1,0.8-0.6,1.4-1.7c1.5-2.6,2.4-5.2,3.5-7.2c0.4-0.6,0.7-1.5,1.4-1.8c0.2-0.1,0.7-0.2,1.1,0
	c0.5,0.1,0.9,0.4,1.2,0.8c0.1,0.1,0.2,0.2,0.2,0.4c0.5,0.8,0.2,1.7-0.1,2.4c-0.3,0.7-0.6,1.4-1,2.3c-0.6,1.2-1.3,2.5-2,3.9
	c-0.1,0.2-0.2,0.4-0.3,0.6c-0.2,0.3-0.9,1.6-1.3,2.6c-0.2,0.4-0.2,0.7-0.1,0.8c0.3,0.4,1.3-1,2.2-2c0.8-1,1.6-2.1,2.3-3
	c0.4-0.6,0.8-1.2,1.3-1.7c0.5-0.6,1-1.3,1.7-1.7c0.2-0.1,0.4-0.2,0.6-0.2c0.5-0.1,1.1,0.2,1.5,0.5c0.2,0.2,0.3,0.4,0.4,0.6
	c0.1,0.2,0.1,0.4,0,0.6c-0.1,0.3-0.2,0.6-0.3,0.9c-0.8,1.7-2.2,3.4-3.4,5.4c-0.9,1.5-2.1,2.9-1.8,3.1s1.8-1.2,2.8-2.5
	c0.4-0.5,0.9-1.1,1.4-1.6c0.5-0.6,1.2-1.3,2-1.6c0.2-0.1,0.4-0.1,0.6-0.1c0.4,0,0.8,0.2,1,0.5c0.1,0.1,0.1,0.2,0.1,0.4
	c0,0.3,0,0.7-0.2,1.1c-0.7,1.8-4.2,6.2-5.3,8.2c-2.6,4.4-7.2,10.1-11.3,14.4c-1.8,1.9-3.5,3.6-5.1,5.2c3.3,0.5,6.7,0.3,10.1-0.6
	C45.1,45.9,53,32.1,49.3,18.8C45.5,5.1,31.7-2.8,18.4,0.9z"/>
<g>
	<path class="st0" d="M91.5,14.1c0.5-0.5,0.8-1,1.1-1.5C92.9,12,93,11.5,93,11s-0.1-1-0.4-1.4c-0.2-0.4-0.6-0.8-1.2-1
		C91,8.4,90.5,8.3,90,8.3c-0.5-0.1-1-0.1-1.5-0.1C87.1,8.3,85.6,8.5,84,9s-3.2,1-4.8,1.7c-1.6,0.7-3.2,1.5-4.6,2.3
		c-1.5,0.8-2.8,1.7-4,2.5c-1.1,0.8-2.1,1.7-3.1,2.7s-2,2-2.9,3.1s-1.8,2.3-2.5,3.5s-1.4,2.5-1.9,3.8c0,0.1-0.1,0.2-0.1,0.3l0,0l0,0
		c-0.1,0.5-0.3,1-0.4,1.7c-0.1,0.6-0.2,1.2-0.2,1.8c0,0.4,0,0.7,0.1,1s0.2,0.6,0.3,0.9s0.4,0.5,0.7,0.6c0.3,0.2,0.6,0.3,1,0.3
		c0.6,0,1.3,0,2-0.2s1.4-0.4,2.1-0.6c0.7-0.3,1.4-0.6,2-0.9c0.6-0.3,1.3-0.7,1.8-1c1.5-0.9,2.9-1.8,4.3-2.8s2.8-2,4.2-3
		c1.1-0.8,2.2-1.6,3.3-2.5s2.3-1.6,3.4-2.4c0.2-0.1,0.5-0.1,0.7-0.1s0.4,0.1,0.6,0.3l0,0l0.1,0.1c0.1,0.1,0.2,0.2,0.3,0.3
		c0.1,0.1,0.2,0.2,0.3,0.4c0.1,0.2,0.1,0.4,0.1,0.5s0,0.2-0.1,0.4c-0.4,1-0.8,2.1-1.2,3.1C85,28,84.6,29,84,30.1
		c0.8-0.1,1.6-0.2,2.4-0.3c0.9-0.1,1.8-0.1,2.9-0.2l-1.5,1.1l0,0c-0.2,0.1-0.3,0.3-0.4,0.3c-0.1,0.1-0.2,0.1-0.2,0.2
		c-0.1,0-0.1,0.1-0.2,0.1c0,0-0.1,0.1-0.2,0.1l-0.2,0.2c-0.7,0.1-1.4,0.1-2,0.2s-1.2,0.2-1.8,0.3c-0.9,1.6-2,3.2-3.1,4.7
		s-2.4,2.9-3.6,4.1c-0.2,0.2-0.4,0.4-0.8,0.7c-0.3,0.3-0.7,0.6-1.2,1c-0.4,0.4-0.9,0.7-1.4,1.1s-1.1,0.7-1.6,1s-1.1,0.5-1.6,0.7
		s-1,0.3-1.5,0.3c-0.6,0-1.1-0.1-1.5-0.4c-0.5-0.3-0.8-0.7-1-1.1c-0.2-0.4-0.3-0.8-0.3-1.2s0.1-0.8,0.3-1.3c0.2-0.4,0.4-0.9,0.6-1.3
		s0.6-0.8,0.9-1.2s0.7-0.8,1-1.1s0.6-0.6,0.9-0.9c0.3-0.3,0.5-0.5,0.7-0.6c0.8-0.7,1.7-1.3,2.7-2c0.9-0.6,1.9-1.2,2.9-1.7
		s2-1,3.1-1.4s2.1-0.7,3.3-0.9c0.3-0.5,0.5-1,0.8-1.5c0.2-0.5,0.5-1,0.8-1.5l0.3-0.5c0.3-0.7,0.6-1.3,0.8-1.8
		c0.2-0.4,0.4-0.8,0.6-1.1c-1.1,0.7-2.3,1.5-3.4,2.3s-2.3,1.6-3.3,2.4c-1,0.7-1.9,1.4-2.9,2.2c-1,0.7-2,1.4-3,2.1
		c-0.5,0.3-1.2,0.7-1.9,1.2c-0.8,0.5-1.6,0.9-2.5,1.4s-1.9,0.8-2.8,1.1c-1,0.3-1.9,0.5-2.8,0.5c-0.8,0-1.5-0.1-2.1-0.4
		c-0.7-0.3-1.2-0.8-1.7-1.4l0,0c-0.3-0.4-0.5-0.9-0.6-1.4s-0.2-1-0.2-1.6c0-0.6,0.1-1.2,0.2-1.8c0.1-0.6,0.3-1.2,0.5-1.8
		c0.5-1.5,1.2-2.9,2-4.3s1.7-2.7,2.7-3.9c1-1.2,2-2.4,3.2-3.5c1.1-1.1,2.3-2.1,3.6-3c2.4-1.8,5.1-3.4,7.9-4.7s5.7-2.2,8.7-2.8l0,0
		c0.4-0.1,0.9-0.1,1.4-0.2c0.5,0,1.1-0.1,1.6-0.1c0.4,0,0.8,0,1.3,0.1c0.4,0,0.8,0.1,1.2,0.2s0.8,0.2,1.1,0.4
		c0.3,0.2,0.6,0.4,0.9,0.7l0,0l0.1,0.2c0.1,0.1,0.3,0.3,0.4,0.4s0.2,0.3,0.3,0.5c0.2,0.4,0.3,0.8,0.4,1.2s0.1,0.7,0.1,1.1
		c0,0.7-0.2,1.4-0.5,2.1c-0.3,0.7-0.8,1.4-1.3,2.1L91.5,14.1z M79.5,33.9c0.1-0.2,0.2-0.3,0.3-0.4c0.1-0.1,0.1-0.2,0.2-0.2
		c0-0.1,0.1-0.1,0.2-0.2c0.1-0.1,0.1-0.2,0.2-0.4c-0.6,0.2-1.2,0.4-1.9,0.6c-0.6,0.2-1.2,0.5-1.9,0.8l0,0c-0.5,0.2-0.9,0.5-1.3,0.7
		s-0.9,0.5-1.4,0.9c-0.5,0.3-1,0.6-1.5,1s-1,0.8-1.5,1.2s-1,0.9-1.4,1.3c-0.5,0.4-0.8,0.9-1.2,1.3c-0.3,0.4-0.5,0.7-0.7,1.2
		c-0.2,0.4-0.3,0.9-0.3,1.4c0,0.2,0.1,0.3,0.3,0.4c0.1,0.1,0.3,0.1,0.5,0.1c0.1,0,0.2,0,0.3,0c0.1,0,0.2,0,0.3-0.1
		c0.8-0.3,1.6-0.7,2.4-1.2s1.6-1.1,2.3-1.7c1.2-1.1,2.3-2.2,3.3-3.4C77.8,36.1,78.7,35,79.5,33.9z"/>
	<path class="st0" d="M96.9,19.8c0.4,0.1,0.7,0.3,0.8,0.5c0.2,0.2,0.2,0.5,0.2,0.8c0,0.5-0.2,1-0.5,1.6s-0.7,1.1-1.1,1.7
		c-0.2,0.3-0.4,0.6-0.7,0.8c-0.2,0.2-0.4,0.5-0.6,0.6c0,0.1,0,0.2,0.1,0.3c0,0.1,0.1,0.1,0.3,0l0,0c0.4-0.2,0.7-0.4,1-0.6
		s0.6-0.4,0.8-0.6l1-0.7l0.2,1.8l-0.7,0.5c-0.3,0.2-0.6,0.4-1,0.7c-0.4,0.2-0.8,0.5-1.2,0.7l0,0c-0.3,0.2-0.6,0.2-0.9,0.2
		c-0.5,0-1-0.3-1.3-0.8c-0.3,0.2-0.6,0.5-1,0.7s-0.7,0.5-1.1,0.7s-0.7,0.4-1.1,0.5s-0.7,0.2-1,0.2c-0.5,0-0.9-0.2-1.2-0.6l0,0
		c-0.2-0.3-0.3-0.6-0.3-1s0.1-0.8,0.2-1.2c0.2-0.4,0.4-0.9,0.7-1.4c0.3-0.5,0.6-0.9,1-1.4s0.8-0.9,1.2-1.3c0.5-0.4,1-0.9,1.5-1.2
		c0.5-0.4,1.1-0.7,1.6-0.9c0.5-0.2,1-0.4,1.5-0.5C96.1,19.7,96.5,19.7,96.9,19.8z M95.1,22.9C95.2,23,95.2,23,95.1,22.9l0.1,0.1
		c0.1-0.2,0.2-0.3,0.3-0.5c0.1-0.2,0.2-0.3,0.3-0.4c0.2-0.3,0.3-0.6,0.3-0.8c0-0.1-0.1-0.1-0.3-0.1c-0.2,0.1-0.5,0.2-0.8,0.3
		c-0.9,0.4-1.8,1-2.5,1.8c-0.7,0.7-1.5,1.6-2.1,2.5l0,0c-0.3,0.4-0.5,0.8-0.7,1.1c-0.2,0.3-0.2,0.5-0.1,0.5s0.3,0,0.6,0
		s0.5-0.2,0.8-0.4c0.3-0.2,0.6-0.4,0.9-0.7c0.3-0.3,0.7-0.5,1-0.8c0-0.1,0-0.3,0-0.4s0-0.2,0-0.4c0-0.4,0-0.7,0.1-1s0.2-0.6,0.3-0.8
		c0.1-0.2,0.3-0.4,0.5-0.6c0.2-0.1,0.4-0.2,0.5-0.2C94.6,22.3,94.9,22.5,95.1,22.9L95.1,22.9z"/>
	<path class="st0" d="M141.1,24.6c-0.8,0.9-1.5,1.9-2.2,2.9s-1.3,2-1.9,3c-0.6,1-1.1,2.1-1.5,3.1c-0.2,0.5-0.3,1-0.4,1.6
		s-0.2,1-0.2,1.5c0,0.7,0.2,1.4,0.5,1.9c0.4,0.6,1,1,2,1.2l-0.1,0.6H135c-0.4-0.1-0.8-0.3-1-0.6c-0.3-0.2-0.5-0.5-0.7-0.8
		s-0.3-0.7-0.4-1c-0.1-0.4-0.1-0.8-0.1-1.1c0-0.5,0-0.9,0.1-1.4s0.2-0.9,0.3-1.3c0.4-1.3,0.8-2.5,1.5-3.7c0.6-1.2,1.3-2.4,2.1-3.5
		s1.6-2.2,2.5-3.3s1.7-2.1,2.6-3l1.2-1.4l0,0c0.5-0.6,1-1.1,1.4-1.7c0.5-0.5,0.9-1.1,1.4-1.7c0.2-0.2,0.4-0.4,0.4-0.5
		s0.1-0.2,0.1-0.3c0,0-0.1,0.1-0.4,0.2c-0.3,0.1-0.5,0.2-0.7,0.3c-0.5,0.2-1,0.4-1.4,0.6c-0.4,0.2-0.8,0.4-1.2,0.6
		c-0.5,0.3-1,0.5-1.5,0.8s-1.1,0.6-1.6,0.9c-0.6,0.4-1.2,0.8-1.8,1.2c-0.6,0.4-1.2,0.8-1.8,1.2c-1.4,0.9-2.7,1.9-4,2.8
		c-1.3,1-2.6,1.9-3.8,2.9c-0.9,0.7-1.8,1.5-2.6,2.3c-0.8,0.8-1.7,1.6-2.5,2.4s-1.7,1.6-2.5,2.4c-0.9,0.8-1.7,1.5-2.6,2.2
		c-0.5,0.4-1,0.7-1.4,0.9s-0.7,0.3-1,0.3c-0.6,0-0.9-0.3-0.9-1c0-0.4,0.1-1,0.4-1.7s0.7-1.4,1.2-2.1c0.7-1,1.5-2.1,2.5-3.2
		s2-2.3,3.1-3.5s2.3-2.4,3.5-3.7c1.2-1.2,2.4-2.5,3.6-3.7c1.2-1.2,2.3-2.3,3.4-3.4c1.1-1.1,2.2-2.3,3.2-3.4c0.4-0.4,0.6-0.8,0.6-0.9
		c0-0.1-0.4-0.2-1.1-0.3c-0.5-0.1-0.9-0.1-1.4-0.2c-0.5,0-0.9,0-1.4,0c-0.8,0-1.7,0-2.5,0.1c-0.9,0.1-1.7,0.2-2.6,0.3
		s-1.7,0.3-2.5,0.4c-0.8,0.2-1.6,0.3-2.3,0.5c-1.8,0.4-3.6,1-5.4,1.7s-3.5,1.4-5.1,2.3c-0.6,0.3-1.1,0.6-1.7,1s-1.1,0.8-1.6,1.3
		s-0.9,1-1.2,1.6c-0.3,0.6-0.5,1.1-0.5,1.8c0,0.4,0.1,0.8,0.2,1.2c0.1,0.4,0.4,0.8,0.7,1.3l-0.4,0.4l-2.1-1.6
		c-0.1-0.3-0.2-0.6-0.2-0.8s0-0.5,0-0.7c0-0.8,0.2-1.6,0.6-2.3s0.9-1.3,1.5-1.9c0.6-0.6,1.3-1.1,2-1.6s1.4-0.9,2-1.2
		c0.8-0.4,1.6-0.8,2.5-1.2s1.9-0.8,2.8-1.2s2-0.7,3.1-1s2.1-0.6,3.2-0.9c1.6-0.4,3.1-0.7,4.5-0.9c1.4-0.2,3-0.4,4.6-0.4
		c1.3,0,2.6,0.1,4,0.3c0.8,0.1,1.4,0.3,1.8,0.6c0.4,0.3,0.6,0.7,0.6,1.1c0,0.6-0.4,1.4-1.2,2.2l0,0l-1.4,1.5
		c-0.5,0.6-1.1,1.2-1.6,1.8c-0.6,0.6-1.1,1.2-1.7,1.8c-0.6,0.7-1.3,1.3-2,2s-1.3,1.3-2,1.9c-0.9,0.9-1.9,1.8-2.8,2.8
		c-1,1-1.9,1.9-2.8,2.9s-1.8,2-2.7,3c-0.9,1-1.7,2.1-2.4,3.1l0,0c0,0.1-0.1,0.2-0.3,0.3s-0.3,0.4-0.6,0.6c0.5-0.4,1-0.9,1.5-1.4
		s1-1,1.6-1.5c1-1,2.2-2.1,3.4-3.2c1.2-1.1,2.4-2.2,3.7-3.2c1.9-1.5,3.7-2.9,5.7-4.2c1.9-1.4,3.9-2.7,6-3.9c0.2-0.1,0.4-0.2,0.7-0.4
		s0.6-0.4,1-0.6s0.8-0.4,1.2-0.6c0.4-0.2,0.8-0.4,1.2-0.6c0.4-0.2,0.8-0.4,1.1-0.6c0.4-0.2,0.7-0.3,0.9-0.4c0.4-0.2,0.8-0.3,1.2-0.3
		c0.4-0.1,0.7-0.1,1-0.1c0.7,0,1.2,0.2,1.5,0.5s0.4,0.8,0.2,1.4c-0.1,0.3-0.3,0.7-0.5,1c-0.3,0.4-0.5,0.6-0.6,0.8l-0.2,0.2l0,0
		l-2,2.4l-2,2.3C142.6,22.8,141.8,23.6,141.1,24.6z"/>
	<path class="st0" d="M140.7,28.9c0.2-0.4,0.5-0.8,0.9-1.2c0.3-0.4,0.7-0.9,1.1-1.3s0.8-0.9,1.2-1.3s0.8-0.8,1.2-1.2
		c0.1,0,0.2-0.1,0.4-0.1s0.4,0,0.6,0c0.3,0,0.6,0,0.8,0.1s0.4,0.3,0.4,0.5c-0.5,0.3-0.9,0.7-1.4,1.2s-1,0.9-1.4,1.4
		s-0.8,0.9-1.1,1.3s-0.6,0.7-0.7,0.9l0,0c-0.1,0.2-0.3,0.4-0.4,0.7c-0.1,0.2-0.3,0.4-0.4,0.6c-0.1,0.2-0.2,0.4-0.2,0.5
		c-0.1,0.2-0.1,0.3,0,0.3l0,0c0,0.1,0.2,0,0.5-0.2s0.6-0.5,1.1-0.9c0.4-0.4,0.9-0.9,1.4-1.4s1-1,1.6-1.6c0.5-0.5,1-1,1.5-1.5
		s0.8-0.9,1.1-1.2l0.7-0.7h2.2l-1.3,1.4c-0.4,0.4-0.9,0.9-1.4,1.5s-1.1,1.1-1.6,1.7c-0.1,0.2-0.3,0.4-0.5,0.7
		c-0.2,0.3-0.4,0.6-0.6,0.9c-0.2,0.3-0.3,0.5-0.4,0.7c-0.1,0.2-0.1,0.3,0,0.2c0.3-0.2,0.5-0.4,0.8-0.6s0.6-0.4,0.8-0.6l2.7-1.8
		l0.2,1.9l-0.4,0.3l0,0c-0.3,0.2-0.6,0.5-1,0.7c-0.4,0.3-0.8,0.6-1.2,0.9s-0.9,0.5-1.3,0.8c-0.4,0.2-0.7,0.4-1,0.5
		c-0.6,0.2-1,0.2-1.2,0s-0.3-0.5-0.3-0.9c0-0.1,0-0.2-0.1-0.1c0,0,0-0.1,0.1-0.2l-0.2,0.2l0,0c-0.1,0.1-0.2,0.2-0.4,0.3
		s-0.4,0.3-0.7,0.4c-0.2,0.1-0.5,0.2-0.8,0.3s-0.5,0.1-0.8,0.1c-0.2,0-0.4,0-0.6-0.1c-0.2-0.1-0.3-0.2-0.5-0.4l0,0
		c-0.2-0.3-0.3-0.6-0.3-1s0.1-0.9,0.3-1.4C140.1,30,140.4,29.4,140.7,28.9z"/>
	<path class="st0" d="M148.5,29.3c0.4-0.3,0.8-0.6,1.1-0.9s0.5-0.4,0.8-0.6c0.2-0.2,0.4-0.4,0.7-0.6c0.2-0.2,0.5-0.5,0.8-0.7l0,0
		c0.1-0.1,0.3-0.3,0.4-0.5c0.1-0.2,0.2-0.3,0.4-0.5s0.4-0.5,0.6-0.7c0.2-0.2,0.4-0.5,0.6-0.7c0.2-0.2,0.3-0.3,0.6-0.5
		c0.2-0.2,0.4-0.4,0.6-0.5s0.4-0.2,0.6-0.2c0.2,0,0.4,0,0.6,0.2l0,0c0.1,0.1,0.2,0.2,0.2,0.3c0,0.2,0.1,0.3,0,0.6s-0.1,0.5-0.3,0.7
		c-0.1,0.3-0.3,0.6-0.6,0.9s-0.5,0.6-0.8,0.9s-0.5,0.5-0.6,0.6l0,0c-0.2,0.2-0.3,0.3-0.3,0.3c0,0.1-0.1,0.1,0,0.2
		c0,0.2,0.1,0.4,0.3,0.6l0,0l0.5,0.6c0.1,0.2,0.2,0.4,0.4,0.5c0.1,0.2,0.2,0.3,0.3,0.6c0.1,0,0.1-0.1,0.2-0.1s0.1-0.1,0.2-0.1
		c0.1-0.1,0.3-0.2,0.5-0.4s0.4-0.3,0.6-0.4c0.2-0.2,0.4-0.3,0.6-0.4s0.4-0.3,0.5-0.4l0.2,1.9c-0.1,0-0.2,0.1-0.3,0.2
		s-0.3,0.1-0.3,0.2c-0.2,0.1-0.4,0.3-0.7,0.5s-0.5,0.3-0.8,0.5s-0.5,0.4-0.8,0.6s-0.5,0.4-0.8,0.5l0,0c-0.3,0.3-0.7,0.5-1.2,0.7
		c-0.4,0.2-0.9,0.3-1.4,0.3c-0.6,0-1.2-0.2-1.6-0.5c-0.1,0-0.2-0.1-0.3-0.3c-0.1-0.1-0.2-0.3-0.3-0.5s-0.1-0.4-0.1-0.6
		s0.1-0.4,0.2-0.6c0.1-0.1,0.2-0.1,0.3-0.2c0.2,0,0.3-0.1,0.5,0s0.4,0.1,0.6,0.2c0.2,0.1,0.4,0.2,0.6,0.4c0.1,0.1,0.1,0.1,0.2,0.2
		c0.1,0,0.2,0,0.3,0s0.3,0,0.4-0.1c0.2-0.1,0.3-0.1,0.4-0.2c0.1-0.1,0.2-0.2,0.2-0.4c0-0.2,0-0.3,0-0.5s-0.1-0.5-0.3-0.8
		s-0.4-0.6-0.6-0.8c0-0.1-0.1-0.1-0.1-0.1s0,0-0.1-0.1l0,0l0,0l-0.1-0.1l0,0l-0.8,0.7c-0.3,0.2-0.6,0.5-0.9,0.7s-0.7,0.5-1.2,0.9
		L148.5,29.3z"/>
	<path class="st0" d="M165.3,24c0.2,0.1,0.3,0.3,0.4,0.5c0.1,0.2,0.1,0.4,0,0.7c0,0.2-0.1,0.5-0.3,0.8c-0.1,0.3-0.3,0.5-0.6,0.8h0.2
		l-1.3,1.4l-0.6,0.7c-0.1,0.2-0.3,0.4-0.5,0.7c-0.2,0.3-0.4,0.6-0.5,0.8c-0.2,0.3-0.3,0.5-0.4,0.6c-0.1,0.2-0.1,0.2,0,0.1l0,0
		l2.1-1.5c0.2-0.1,0.4-0.2,0.6-0.4c0.2-0.2,0.4-0.3,0.6-0.4s0.4-0.3,0.6-0.4s0.3-0.2,0.4-0.3l0.2,1.9l-0.4,0.3l0,0
		c-0.3,0.2-0.6,0.5-1,0.7c-0.4,0.3-0.8,0.6-1.2,0.9s-0.9,0.5-1.3,0.8c-0.4,0.2-0.7,0.4-1,0.5c-0.6,0.2-1,0.2-1.2,0s-0.3-0.5-0.3-0.9
		V32l-0.1,0.1l0,0c-0.1,0.1-0.2,0.2-0.4,0.3s-0.4,0.3-0.7,0.4c-0.2,0.1-0.5,0.2-0.8,0.3s-0.5,0.1-0.8,0.1c-0.2,0-0.4,0-0.6-0.1
		c-0.2-0.1-0.3-0.2-0.5-0.4l0,0c-0.2-0.3-0.3-0.6-0.3-1c0-0.4,0.1-0.8,0.2-1.2c0.2-0.4,0.4-0.9,0.7-1.4s0.6-0.9,1-1.4
		s0.8-0.9,1.2-1.3s0.8-0.7,1.3-1.1s0.9-0.6,1.4-0.9s0.9-0.4,1.3-0.6c0.4-0.1,0.9-0.2,1.3-0.2C164.5,23.7,164.9,23.8,165.3,24z
		 M159.9,29.7c0.3-0.3,0.6-0.5,0.9-0.8s0.6-0.6,0.8-0.9s0.5-0.6,0.7-0.8c0.2-0.2,0.4-0.5,0.6-0.7h0.1c0.5-0.6,0.8-0.9,0.8-1.1
		c0-0.1-0.1-0.1-0.2-0.1c-0.2,0-0.4,0.1-0.7,0.3l0,0c-0.2,0.1-0.5,0.3-0.7,0.4s-0.4,0.3-0.7,0.4c-0.6,0.5-1.3,1-1.8,1.5l0,0
		c-0.1,0.1-0.3,0.3-0.6,0.6c-0.3,0.3-0.6,0.7-0.8,1c-0.3,0.4-0.5,0.7-0.6,1.1c-0.2,0.3-0.2,0.6-0.1,0.7l0,0c0,0.1,0.2,0.1,0.3,0
		c0.2-0.1,0.4-0.2,0.6-0.4c0.2-0.2,0.5-0.4,0.7-0.6C159.4,30.2,159.6,29.9,159.9,29.7L159.9,29.7z"/>
</g>
</svg>
